<?xml version="1.0" encoding="UTF-8" standalone="no"?>
<!DOCTYPE svg PUBLIC "-//W3C//DTD SVG 1.1//EN" "http://www.w3.org/Graphics/SVG/1.1/DTD/svg11.dtd">
<svg width="100%" height="100%" viewBox="0 0 500 500" version="1.1" xmlns="http://www.w3.org/2000/svg" xmlns:xlink="http://www.w3.org/1999/xlink" xml:space="preserve" xmlns:serif="http://www.serif.com/" style="fill-rule:evenodd;clip-rule:evenodd;stroke-linejoin:round;stroke-miterlimit:1.41421;">
    <g transform="matrix(1,0,0,1,8.52651e-14,-59)">
        <g transform="matrix(1.33333,0,0,1.28205,-83.3333,-112.821)">
            <path d="M400,400L100,400L212.941,166L287.059,166L400,400Z" style="fill:rgb(51,51,51);"/>
        </g>
        <g transform="matrix(0.798883,0,0,1.77378,50.2793,-280.68)">
            <path d="M273,364L227,364L233.308,318L266.692,318L273,364Z" style="fill:rgb(195,204,51);"/>
        </g>
        <g transform="matrix(0.78622,0,0,2.89062,53.1841,-425.761)">
            <path d="M263,226.928L237.663,226.928L240.848,213L259.815,213L263,226.928Z" style="fill:rgb(195,204,51);"/>
        </g>
        <g transform="matrix(0.411139,0,0,2.10663,147.078,-323.69)">
            <path d="M263,226.928L237.663,226.928L242.159,213L258.504,213L263,226.928Z" style="fill:rgb(195,204,51);"/>
        </g>
    </g>
    <g transform="matrix(0.811953,0,0,0.823895,-3.82159,68.4062)">
        <path d="M102.835,418.474C102.835,425.406 100.47,430.738 95.739,434.47C91.008,438.201 84.24,440.067 75.434,440.067L67.378,440.067L67.378,467L59.415,467L59.415,398.52L77.167,398.52C94.279,398.52 102.835,405.172 102.835,418.474ZM67.378,433.229L74.544,433.229C81.601,433.229 86.707,432.089 89.861,429.809C93.014,427.53 94.591,423.876 94.591,418.849C94.591,414.321 93.108,410.948 90.142,408.731C87.175,406.514 82.554,405.406 76.277,405.406L67.378,405.406L67.378,433.229Z" style="fill:rgb(38,38,38);fill-rule:nonzero;"/>
        <path d="M139.417,414.727C141.697,414.727 143.742,414.914 145.553,415.289L144.476,422.502C142.352,422.034 140.479,421.8 138.855,421.8C134.702,421.8 131.15,423.486 128.199,426.858C125.248,430.231 123.773,434.431 123.773,439.458L123.773,467L115.997,467L115.997,415.664L122.414,415.664L123.304,425.172L123.679,425.172C125.584,421.831 127.879,419.255 130.564,417.444C133.25,415.632 136.201,414.727 139.417,414.727Z" style="fill:rgb(38,38,38);fill-rule:nonzero;"/>
        <path d="M197.545,441.285C197.545,449.654 195.437,456.188 191.222,460.887C187.006,465.587 181.182,467.937 173.751,467.937C169.16,467.937 165.085,466.859 161.525,464.705C157.966,462.55 155.218,459.459 153.282,455.431C151.346,451.402 150.378,446.687 150.378,441.285C150.378,432.916 152.47,426.398 156.654,421.729C160.838,417.061 166.647,414.727 174.078,414.727C181.261,414.727 186.967,417.116 191.198,421.893C195.43,426.671 197.545,433.135 197.545,441.285ZM158.434,441.285C158.434,447.843 159.745,452.839 162.369,456.274C164.992,459.709 168.848,461.426 173.938,461.426C179.028,461.426 182.892,459.716 185.531,456.297C188.169,452.878 189.489,447.874 189.489,441.285C189.489,434.759 188.169,429.801 185.531,426.413C182.892,423.025 178.997,421.331 173.844,421.331C168.754,421.331 164.913,423.002 162.322,426.343C159.73,429.684 158.434,434.665 158.434,441.285Z" style="fill:rgb(38,38,38);fill-rule:nonzero;"/>
        <path d="M276.611,467L276.611,433.603C276.611,429.513 275.736,426.445 273.988,424.399C272.239,422.354 269.522,421.331 265.837,421.331C260.997,421.331 257.422,422.721 255.111,425.5C252.8,428.279 251.645,432.557 251.645,438.334L251.645,467L243.87,467L243.87,433.603C243.87,429.513 242.995,426.445 241.247,424.399C239.498,422.354 236.766,421.331 233.05,421.331C228.178,421.331 224.611,422.791 222.347,425.711C220.083,428.63 218.951,433.416 218.951,440.067L218.951,467L211.176,467L211.176,415.664L217.499,415.664L218.764,422.69L219.138,422.69C220.606,420.191 222.675,418.24 225.345,416.835C228.014,415.429 231.004,414.727 234.314,414.727C242.34,414.727 247.586,417.631 250.052,423.439L250.427,423.439C251.957,420.754 254.174,418.63 257.078,417.069C259.983,415.508 263.293,414.727 267.008,414.727C272.817,414.727 277.165,416.218 280.053,419.2C282.942,422.182 284.386,426.952 284.386,433.51L284.386,467L276.611,467Z" style="fill:rgb(38,38,38);fill-rule:nonzero;"/>
        <path d="M322.092,467.937C314.504,467.937 308.516,465.626 304.129,461.005C299.742,456.383 297.548,449.966 297.548,441.753C297.548,433.478 299.585,426.905 303.661,422.034C307.736,417.163 313.208,414.727 320.078,414.727C326.511,414.727 331.6,416.842 335.348,421.074C339.095,425.305 340.968,430.887 340.968,437.819L340.968,442.737L305.604,442.737C305.761,448.764 307.283,453.338 310.171,456.461C313.06,459.584 317.127,461.145 322.373,461.145C327.9,461.145 333.365,459.99 338.767,457.679L338.767,464.611C336.019,465.798 333.419,466.649 330.968,467.164C328.517,467.679 325.558,467.937 322.092,467.937ZM319.984,421.238C315.862,421.238 312.576,422.58 310.124,425.266C307.673,427.951 306.229,431.667 305.792,436.414L332.631,436.414C332.631,431.511 331.538,427.756 329.352,425.149C327.166,422.541 324.044,421.238 319.984,421.238Z" style="fill:rgb(38,38,38);fill-rule:nonzero;"/>
        <path d="M389.354,467L389.354,433.791C389.354,429.606 388.401,426.484 386.497,424.423C384.592,422.362 381.61,421.331 377.55,421.331C372.179,421.331 368.245,422.783 365.747,425.687C363.248,428.591 361.999,433.385 361.999,440.067L361.999,467L354.224,467L354.224,415.664L360.547,415.664L361.812,422.69L362.187,422.69C363.779,420.16 366.012,418.201 368.885,416.811C371.758,415.422 374.958,414.727 378.487,414.727C384.67,414.727 389.323,416.218 392.445,419.2C395.568,422.182 397.129,426.952 397.129,433.51L397.129,467L389.354,467Z" style="fill:rgb(38,38,38);fill-rule:nonzero;"/>
        <path d="M444.672,467L443.126,459.693L442.751,459.693C440.191,462.909 437.638,465.087 435.093,466.227C432.548,467.367 429.371,467.937 425.561,467.937C420.471,467.937 416.482,466.625 413.593,464.002C410.705,461.379 409.261,457.648 409.261,452.808C409.261,442.44 417.551,437.007 434.133,436.507L442.845,436.226L442.845,433.041C442.845,429.013 441.978,426.039 440.245,424.118C438.512,422.198 435.741,421.238 431.931,421.238C427.653,421.238 422.813,422.549 417.411,425.172L415.022,419.223C417.551,417.85 420.323,416.772 423.336,415.992C426.349,415.211 429.371,414.821 432.4,414.821C438.52,414.821 443.056,416.179 446.006,418.896C448.957,421.612 450.433,425.968 450.433,431.964L450.433,467L444.672,467ZM427.107,461.52C431.947,461.52 435.749,460.193 438.512,457.538C441.276,454.884 442.657,451.168 442.657,446.391L442.657,441.753L434.882,442.081C428.699,442.3 424.242,443.26 421.509,444.962C418.777,446.664 417.411,449.31 417.411,452.901C417.411,455.712 418.262,457.851 419.964,459.318C421.665,460.786 424.046,461.52 427.107,461.52Z" style="fill:rgb(38,38,38);fill-rule:nonzero;"/>
        <path d="M501.394,460.115L500.973,460.115C497.382,465.329 492.011,467.937 484.86,467.937C478.146,467.937 472.924,465.642 469.192,461.051C465.461,456.461 463.595,449.935 463.595,441.472C463.595,433.01 465.468,426.437 469.216,421.753C472.963,417.069 478.178,414.727 484.86,414.727C491.824,414.727 497.163,417.256 500.879,422.315L501.488,422.315L501.16,418.615L500.973,415.008L500.973,394.117L508.748,394.117L508.748,467L502.425,467L501.394,460.115ZM485.844,461.426C491.152,461.426 495.001,459.982 497.39,457.093C499.778,454.205 500.973,449.544 500.973,443.112L500.973,441.472C500.973,434.197 499.763,429.005 497.343,425.898C494.923,422.791 491.059,421.238 485.75,421.238C481.191,421.238 477.701,423.01 475.281,426.554C472.861,430.098 471.651,435.102 471.651,441.566C471.651,448.124 472.853,453.073 475.258,456.414C477.662,459.755 481.191,461.426 485.844,461.426Z" style="fill:rgb(38,38,38);fill-rule:nonzero;"/>
        <path d="M546.923,467.937C539.335,467.937 533.347,465.626 528.96,461.005C524.572,456.383 522.379,449.966 522.379,441.753C522.379,433.478 524.416,426.905 528.491,422.034C532.566,417.163 538.039,414.727 544.909,414.727C551.341,414.727 556.431,416.842 560.178,421.074C563.926,425.305 565.799,430.887 565.799,437.819L565.799,442.737L530.435,442.737C530.591,448.764 532.114,453.338 535.002,456.461C537.89,459.584 541.958,461.145 547.204,461.145C552.731,461.145 558.195,459.99 563.598,457.679L563.598,464.611C560.85,465.798 558.25,466.649 555.799,467.164C553.348,467.679 550.389,467.937 546.923,467.937ZM544.815,421.238C540.693,421.238 537.406,422.58 534.955,425.266C532.504,427.951 531.06,431.667 530.622,436.414L557.462,436.414C557.462,431.511 556.369,427.756 554.183,425.149C551.997,422.541 548.874,421.238 544.815,421.238Z" style="fill:rgb(38,38,38);fill-rule:nonzero;"/>
    </g>
</svg>
